<svg width="18" height="17" viewBox="0 0 18 17" fill="none" xmlns="http://www.w3.org/2000/svg">
<path d="M8.24301 0.175095L1.25701 2.79509C0.950032 2.91097 0.685662 3.11767 0.499141 3.38762C0.31262 3.65758 0.212809 3.97797 0.213013 4.30609V11.8661C0.212949 12.1652 0.296173 12.4585 0.453365 12.713C0.610556 12.9675 0.835505 13.1732 1.10301 13.3071L8.08901 16.8001C8.31247 16.9128 8.55925 16.9715 8.80951 16.9715C9.05978 16.9715 9.30656 16.9128 9.53001 16.8001L16.513 13.3071C16.7807 13.1734 17.0057 12.9677 17.163 12.7132C17.3202 12.4586 17.4033 12.1653 17.403 11.8661V4.30609C17.4032 3.97835 17.3033 3.65837 17.1167 3.3889C16.9302 3.11943 16.6658 2.91331 16.359 2.79809L9.37501 0.179095C9.01105 0.0383736 8.60796 0.036949 8.24301 0.175095ZM8.81301 1.68709L15.799 4.30709V4.31709L8.81301 7.15409L1.82501 4.31609V4.30609L8.81301 1.68709ZM1.82501 6.05609L8.00501 8.56809V14.9561L1.82501 11.8661V6.05609ZM9.61701 14.9561V8.56809L15.797 6.05609V11.8631L9.61701 14.9561Z" fill="#637182" fill-opacity="0.55"/>
</svg>
